<?xml version="1.0" encoding="UTF-8"?><svg id="dots" xmlns="http://www.w3.org/2000/svg" width="395" height="82" viewBox="0 0 395 82"><defs><style>.cls-1{opacity:.5;}.cls-2{fill:#333745;stroke-width:0px;}</style></defs><g class="cls-1"><path class="cls-2" d="m119.6,22.01h62.03c10.48,0,18.99,8.51,18.99,18.99h0c0,10.48-8.51,18.99-18.99,18.99h-62.03c-10.48,0-18.99-8.51-18.99-18.99h0c0-10.48,8.51-18.99,18.99-18.99Z" transform="translate(73.04 -94.46) rotate(44.97)"/></g><g class="cls-1"><path class="cls-2" d="m225.71,38.07l-97.03.03c-10.49,0-18.99-8.49-18.99-18.98h0c0-10.49,8.49-18.99,18.98-18.99l97.03-.03c10.49,0,18.99,8.49,18.99,18.98h0c0,10.49-8.49,18.99-18.98,18.99Z"/></g><g class="cls-1"><rect class="cls-2" x="91.54" y="43.92" width="100" height="37.97" rx="18.99" ry="18.99"/></g><path class="cls-2" d="m208.56,63.3c0-.69-.57-1.26-1.29-1.26h-2.88c-.72,0-1.29.54-1.29,1.26v.51l-2.64-.27v-.78c0-1.77,1.35-3.15,3.15-3.15h4.53c1.77,0,3.18,1.41,3.18,3.18v11.04h-2.7v-.72c-1.83.78-3.9,1.02-5.19,1.02-2.01,0-3.21-1.32-3.21-3.18v-2.13c0-1.86,1.2-3.18,3.21-3.18,1.29,0,3.21.06,5.13.69v-3.03Zm0,6.06c0-.69-.57-1.05-1.26-1.2-.9-.21-2.25-.24-3.12-.24-.81,0-1.29.39-1.29,1.26v1.32c0,.87.48,1.26,1.29,1.26.87,0,2.07-.09,3.12-.51.69-.27,1.26-.63,1.26-1.29v-.6Z"/><path class="cls-2" d="m215.52,73.83v-14.22h2.7v1.02c1.83-.78,4.05-1.32,5.34-1.32,2.01,0,3.21,1.32,3.21,3.18v11.34h-2.76v-10.56c0-.81-.48-1.26-1.29-1.26-.87,0-2.13.39-3.18.81-.69.27-1.26.63-1.26,1.29v9.72h-2.76Z"/><path class="cls-2" d="m231.12,73.83v-14.22h2.7v1.02c1.83-.78,4.05-1.32,5.34-1.32,2.01,0,3.21,1.32,3.21,3.18v11.34h-2.76v-10.56c0-.81-.48-1.26-1.29-1.26-.87,0-2.13.39-3.18.81-.69.27-1.26.63-1.26,1.29v9.72h-2.76Z"/><path class="cls-2" d="m246.87,53.7h2.76v3.54h-2.76v-3.54Zm0,5.91h2.76v14.22h-2.76v-14.22Z"/><path class="cls-2" d="m259.98,66.69l5.52,7.14h-3.24l-5.22-6.81v6.81h-2.76v-19.98l2.76-.48v12.96l5.19-6.72h3.18l-5.43,7.08Z"/><path class="cls-2" d="m276,63.3c0-.69-.57-1.26-1.29-1.26h-2.88c-.72,0-1.29.54-1.29,1.26v.51l-2.64-.27v-.78c0-1.77,1.35-3.15,3.15-3.15h4.53c1.77,0,3.18,1.41,3.18,3.18v11.04h-2.7v-.72c-1.83.78-3.9,1.02-5.19,1.02-2.01,0-3.21-1.32-3.21-3.18v-2.13c0-1.86,1.2-3.18,3.21-3.18,1.29,0,3.21.06,5.13.69v-3.03Zm0,6.06c0-.69-.57-1.05-1.26-1.2-.9-.21-2.25-.24-3.12-.24-.81,0-1.29.39-1.29,1.26v1.32c0,.87.48,1.26,1.29,1.26.87,0,2.07-.09,3.12-.51.69-.27,1.26-.63,1.26-1.29v-.6Z"/><path class="cls-2" d="m287.19,64.17c-1.77-.51-3.15-1.41-3.15-3.24v-3.78c0-1.83,1.44-3.3,3.3-3.3h5.94c1.83,0,3.3,1.47,3.3,3.3v2.28l-2.85.48v-2.16c0-.72-.57-1.29-1.29-1.29h-4.29c-.69,0-1.26.57-1.26,1.29v2.55c0,.78.51,1.11,1.23,1.32,2.19.63,3.09.87,5.43,1.53,1.71.48,3.12,1.41,3.12,3.24v4.14c0,1.83-1.44,3.3-3.3,3.3h-6.12c-1.83,0-3.3-1.47-3.3-3.3v-2.25l2.85-.48v2.13c0,.72.57,1.29,1.29,1.29h4.44c.72,0,1.29-.57,1.29-1.29v-2.94c0-.72-.33-1.02-1.26-1.29-2.4-.69-3.09-.87-5.37-1.53Z"/><path class="cls-2" d="m311.13,67.17l2.85.48v2.88c0,1.83-1.47,3.3-3.3,3.3h-6.45c-1.83,0-3.27-1.47-3.27-3.3v-13.38c0-1.83,1.44-3.3,3.27-3.3h6.45c1.83,0,3.3,1.47,3.3,3.3v2.73l-2.85.48v-2.61c0-.72-.57-1.26-1.29-1.26h-4.74c-.72,0-1.29.54-1.29,1.26v12.18c0,.72.57,1.26,1.29,1.26h4.74c.72,0,1.29-.54,1.29-1.26v-2.76Z"/><path class="cls-2" d="m329.31,64.89h-8.13v8.94h-2.85v-19.98h2.85v8.4h8.13v-8.4h2.85v19.98h-2.85v-8.94Z"/><path class="cls-2" d="m346.89,53.85h2.85v16.68c0,1.83-1.47,3.3-3.3,3.3h-6.36c-1.83,0-3.27-1.47-3.27-3.3v-16.68h2.85v16.08c0,.72.57,1.26,1.29,1.26h4.65c.72,0,1.29-.54,1.29-1.26v-16.08Z"/><path class="cls-2" d="m354.39,53.85h2.85v17.34h8.82v2.64h-11.67v-19.98Z"/><path class="cls-2" d="m365.46,53.85h14.25v2.64h-5.7v17.34h-2.85v-17.34h-5.7v-2.64Z"/><path class="cls-2" d="m382.86,53.85h11.76v2.64h-8.91v5.82h8.1v2.64h-8.1v6.24h8.94v2.64h-11.79v-19.98Z"/><g class="cls-1"><circle class="cls-2" cx="64.95" cy="62.91" r="19"/></g><g class="cls-1"><circle class="cls-2" cx="19.35" cy="62.91" r="19"/></g><g class="cls-1"><circle class="cls-2" cx="271.29" cy="19.09" r="19"/></g></svg>