<?xml version="1.0" encoding="UTF-8"?><svg id="illustrationen" xmlns="http://www.w3.org/2000/svg" width="36" height="36" viewBox="0 0 36 36"><defs><style>.cls-1{fill:none;stroke:#333745;stroke-linecap:round;stroke-linejoin:round;stroke-width:.75px;}</style></defs><path class="cls-1" d="m30.62,29.02H5.38c-1.1,0-2-.9-2-2v-.95h12.2l1,1h3l1-1h12.04v.95c0,1.1-.9,2-2,2Z"/><line class="cls-1" x1="5" y1="16.87" x2="5" y2="26.07"/><path class="cls-1" d="m31,26.07V8.98c0-1.1-.9-2-2-2H7c-1.1,0-2,.9-2,2v1.09"/><line class="cls-1" x1="7" y1="16.87" x2="7" y2="26.07"/><path class="cls-1" d="m29,26.07V10.07c0-.55-.45-1-1-1H8c-.55,0-1,.45-1,1"/><rect class="cls-1" x="3.38" y="11.44" width="7.62" height="4.06"/><line class="cls-1" x1="4.82" y1="12.86" x2="8.72" y2="12.86"/><line class="cls-1" x1="4.82" y1="14.08" x2="7.46" y2="14.08"/><g id="Interface-Essential_Share_megaphone"><g id="Group_357"><g id="megaphone"><path id="Shape_1626" class="cls-1" d="m16.34,20.18l-1.08.39c-1,.36-2.11-.2-2.48-1.24s.14-2.17,1.14-2.52l1.08-.39,1.34,3.76Z"/><path id="Shape_1627" class="cls-1" d="m16.34,20.18c2.12-.75,4.43-.84,6.63-.24l.68.18-2.95-8.28-.41.57c-1.33,1.85-3.17,3.24-5.29,4l1.34,3.76Z"/><path id="Shape_1628" class="cls-1" d="m23.35,14.72l.54,1.51"/><path id="Shape_1629" class="cls-1" d="m16.34,20.18c.35,1,1.08,1.81,2.02,2.25"/></g></g></g></svg>