<?xml version="1.0" encoding="UTF-8"?><svg id="illustrationen" xmlns="http://www.w3.org/2000/svg" width="36" height="36" viewBox="0 0 36 36"><defs><style>.cls-1{fill:none;stroke:#333745;stroke-linecap:round;stroke-linejoin:round;stroke-width:.75px;}</style></defs><path id="Shape_1040" class="cls-1" d="m20.23,3.78v11.37h11.37c0-6.28-5.09-11.37-11.37-11.37Z"/><path class="cls-1" d="m12.17,31.39c3.72,1.51,8.04.96,11.3-1.6l-7.03-8.94v-11.37c-4.98,0-9.38,3.24-10.86,8-.66,2.13-.67,4.35-.1,6.4"/><path id="Shape_1042" class="cls-1" d="m31.6,18.95h-11.37l7.03,8.94c2.75-2.15,4.35-5.45,4.35-8.94Z"/><path id="Oval_135" class="cls-1" d="m9.33,32.08c2.72,0,4.93-2.21,4.93-4.93s-2.21-4.93-4.93-4.93-4.93,2.21-4.93,4.93,2.21,4.93,4.93,4.93Z"/><path id="Shape_1220" class="cls-1" d="m11.53,25.72l-2.84,3.43-1.71-1.71"/></svg>