<?xml version="1.0" encoding="UTF-8"?><svg id="illustrationen" xmlns="http://www.w3.org/2000/svg" width="36" height="36" viewBox="0 0 36 36"><defs><style>.cls-1{fill:none;stroke:#333745;stroke-linecap:round;stroke-linejoin:round;stroke-width:.75px;}</style></defs><path id="Shape" class="cls-1" d="m18,3.59v3.07"/><path id="Shape_2" class="cls-1" d="m3.1,18.1h3.19"/><path id="Shape_3" class="cls-1" d="m32.9,18.1h-3.19"/><path id="Shape_4" class="cls-1" d="m5.71,8.76l2.71,2.6"/><path id="Shape_4-2" class="cls-1" d="m5.76,27.5l2.6-2.71"/><path id="Shape_5" class="cls-1" d="m30.24,27.54l-2.6-2.71"/><path id="Shape_7" class="cls-1" d="m15.02,32.41h5.96"/><path id="Shape_7-2" class="cls-1" d="m15.02,30.26h5.96"/><path class="cls-1" d="m18,13.65v-2.7c-3.29,0-6.26,2.09-7.17,5.21-1.01,3.44.78,7.07,4.19,8.5v3.47h5.96v-3.47c2.68-1.12,4.42-3.65,4.46-6.45-.12-.02-.23-.04-.34-.1h-2.26v1.86c0,.71-.58,1.29-1.29,1.29h0c-.71,0-1.29-.58-1.29-1.29v-1.86h-2.27v-1.88l1-1.29-1-1.29Z"/><path class="cls-1" d="m25.1,18.1c.1.05.22.07.34.1,0-.03,0-.06,0-.1h-.35Z"/><path class="cls-1" d="m21,9.81v2.29s2.44,0,2.44,0v1.86c0,.71.58,1.29,1.29,1.29h0c.71,0,1.29-.58,1.29-1.29v-1.86h2.44c0-3.58-2.74-6.61-6.43-7.1-.34-.05-.69-.06-1.02-.06h0s0,2.29,0,2.29l1,1.29-1,1.29Z"/></svg>