<?xml version="1.0" encoding="UTF-8"?><svg id="illustrationen" xmlns="http://www.w3.org/2000/svg" width="36" height="36" viewBox="0 0 36 36"><defs><style>.cls-1{fill:none;stroke:#333745;stroke-linecap:round;stroke-linejoin:round;stroke-width:.75px;}</style></defs><path class="cls-1" d="m12.78,8.19h12c1.85,0,3.52,1.14,4.19,2.86.67,1.73.22,3.69-1.15,4.95"/><path class="cls-1" d="m17.28,17.19h-4.5c-2.49,0-4.5-2.01-4.5-4.5"/><path id="Shape_894" class="cls-1" d="m15.03,26.19h-2.25c-2.49,0-4.5-2.01-4.5-4.5s2.01-4.5,4.5-4.5h4.5"/><path id="Shape_895" class="cls-1" d="m12.67,12.69h12.22"/><path id="Shape_895-2" class="cls-1" d="m12.67,21.69h3.87"/><path id="Oval_69" class="cls-1" d="m23.28,28.44c2.9,0,5.25-2.35,5.25-5.25s-2.35-5.25-5.25-5.25-5.25,2.35-5.25,5.25,2.35,5.25,5.25,5.25Z"/><path id="Shape_896" class="cls-1" d="m30.78,30.69l-3.79-3.79"/><path id="Shape_1381" class="cls-1" d="m7.48,7.2v-1.89h-2.26"/><path id="Shape_1382" class="cls-1" d="m7.48,5.41c-1.36.35-2.29,1.59-2.26,2.99.03,1.4,1.02,2.6,2.39,2.89s2.76-.39,3.36-1.66c.6-1.27.25-2.78-.85-3.65"/></svg>