<?xml version="1.0" encoding="UTF-8"?><svg id="illustrationen" xmlns="http://www.w3.org/2000/svg" width="36" height="36" viewBox="0 0 36 36"><defs><style>.cls-1{fill:#daede2;stroke-width:0px;}</style></defs><path id="Pfad_10" class="cls-1" d="m8.16,34.51H.61V12.87h7.55v21.65Zm15.68-14.6c-1.84,0-3.33,1.49-3.33,3.33h0v11.27h-7.94V12.87h7.94v2.47c1.86-1.58,4.21-2.45,6.64-2.49,4.93,0,8.34,3.66,8.34,10.58v11.08h-8.33v-11.27c0-1.84-1.49-3.33-3.33-3.33h0ZM8.27,5.37c0,2.15-1.74,3.89-3.89,3.89-2.15,0-3.89-1.74-3.89-3.89,0-2.15,1.74-3.88,3.88-3.89,2.15,0,3.89,1.74,3.89,3.88h0Z"/></svg>