<?xml version="1.0" encoding="UTF-8"?><svg id="illustrationen" xmlns="http://www.w3.org/2000/svg" width="36" height="36" viewBox="0 0 36 36"><defs><style>.cls-1{fill:none;stroke:#333745;stroke-linecap:round;stroke-linejoin:round;stroke-width:.75px;}.cls-2{fill:#333745;stroke-width:0px;}</style></defs><polyline class="cls-1" points="14.27 30.02 32.55 30.02 32.55 32.52 12.55 32.52"/><rect class="cls-1" x="17.89" y="18.43" width="19.68" height="3.5" transform="translate(47.91 -7.55) rotate(90)"/><rect class="cls-1" x="12.89" y="19.93" width="16.68" height="3.5" transform="translate(42.91 .45) rotate(90)"/><polyline class="cls-1" points="12.98 23.66 12.98 16.34 16.48 16.34 16.48 30.02"/><polyline class="cls-1" points="6.48 21.79 6.48 19.34 9.98 19.34 9.98 21.79"/><path class="cls-1" d="m8.23,14.32c9.01,0,19.01-10.1,19.01-10.1"/><polyline class="cls-1" points="23.74 4.22 27.24 4.22 27.24 7.72"/><circle class="cls-1" cx="8.12" cy="27.87" r="4.86"/><path class="cls-2" d="m6.23,27.09h.55v-.91c0-.44.34-.79.78-.79h1.26c.45,0,.8.35.8.79v.68l-.64.12v-.68c0-.18-.13-.31-.31-.31h-.88c-.18,0-.31.13-.31.31v.8h1.06l-.06.46h-1v.68h1l-.06.46h-.94v.74c0,.18.13.31.31.31h.88c.18,0,.31-.13.31-.31v-.72l.64.11v.72c0,.44-.35.79-.8.79h-1.26c-.44,0-.78-.35-.78-.79v-.85h-.67l.06-.46h.61v-.68h-.61l.06-.46Z"/></svg>