<?xml version="1.0" encoding="UTF-8"?><svg id="illustrationen" xmlns="http://www.w3.org/2000/svg" width="36" height="36" viewBox="0 0 36 36"><defs><style>.cls-1{fill:none;stroke:#333745;stroke-linecap:round;stroke-linejoin:round;stroke-width:.75px;}</style></defs><path id="Shape_185" class="cls-1" d="m19.99,19.14l.4,2.31-2.31-1.07-2.11,1.07.14-2.34-1.58-1.96,2.38-.29,1.19-2.31,1.06,2.31,2.38.29-1.54,1.99Z"/><path id="Shape_185-2" class="cls-1" d="m29.99,19.14l.4,2.31-2.31-1.07-2.11,1.07.14-2.34-1.58-1.96,2.38-.29,1.19-2.31,1.06,2.31,2.38.29-1.54,1.99Z"/><path id="Shape_185-3" class="cls-1" d="m9.92,19.14l.4,2.31-2.31-1.07-2.11,1.07.14-2.34-1.58-1.96,2.38-.29,1.19-2.31,1.06,2.31,2.38.29-1.54,1.99Z"/></svg>