<?xml version="1.0" encoding="UTF-8"?><svg id="illustrationen" xmlns="http://www.w3.org/2000/svg" width="36" height="36" viewBox="0 0 36 36"><defs><style>.cls-1{fill:#333745;stroke-width:0px;}</style></defs><path class="cls-1" d="m32,.5H4C2.07.5.5,2.07.5,4v28c0,1.93,1.57,3.5,3.5,3.5h28c1.93,0,3.5-1.57,3.5-3.5V4c0-1.93-1.57-3.5-3.5-3.5ZM11.2,29.15h-5.29v-15.17h5.29v15.17Zm.08-20.42c0,1.5-1.22,2.72-2.72,2.72s-2.72-1.22-2.72-2.72,1.22-2.72,2.72-2.72h0c1.5,0,2.72,1.22,2.72,2.72h0Zm19.08,20.42h-5.83v-7.9c0-1.29-1.05-2.33-2.33-2.33s-2.33,1.04-2.33,2.33h0v7.9h-5.56v-15.17h5.56v1.73c1.3-1.1,2.95-1.72,4.66-1.74,3.46,0,5.85,2.56,5.85,7.42v7.77Z"/></svg>