<?xml version="1.0" encoding="UTF-8"?><svg id="illustrationen" xmlns="http://www.w3.org/2000/svg" width="36" height="36" viewBox="0 0 36 36"><defs><style>.cls-1{fill:none;stroke:#333745;stroke-linecap:round;stroke-linejoin:round;stroke-width:.75px;}</style></defs><path id="Shape_477" class="cls-1" d="m13.84,27.69l.83-5"/><path id="Shape_478" class="cls-1" d="m11.34,27.69h2.5"/><path id="Shape_479" class="cls-1" d="m5.51,19.36h10.7"/><path id="Shape_480" class="cls-1" d="m14.67,22.69H6.62c-.61,0-1.11-.5-1.11-1.11V7.15c0-.61.5-1.11,1.11-1.11h22.76c.61,0,1.11.5,1.11,1.11v10.27"/><path id="Oval_27" class="cls-1" d="m23.83,25.52c1.1,0,2-.9,2-2s-.9-2-2-2-2,.9-2,2,.9,2,2,2Z"/><path id="Shape_481" class="cls-1" d="m25.73,18.7c.17.56.74.89,1.3.76l1.63-.38,1.42,2.46-1.14,1.23c-.4.43-.4,1.09,0,1.51l1.14,1.23-1.42,2.46-1.63-.38c-.57-.13-1.14.2-1.3.76l-.49,1.61h-2.83l-.49-1.61c-.17-.56-.74-.89-1.3-.76l-1.63.38-1.42-2.46,1.14-1.23c.4-.43.4-1.09,0-1.51l-1.14-1.23,1.42-2.46,1.63.38c.57.13,1.14-.2,1.3-.76l.49-1.61h2.83s.49,1.62.49,1.62Z"/></svg>